<svg width="18" height="36" viewBox="0 0 18 36" fill="none" xmlns="http://www.w3.org/2000/svg">
<path d="M6.62341 0C9.73473 0 12.257 2.7258 12.257 6.08823V9.07792L13.78 10.795C15.1123 12.2971 16.2812 13.959 17.2637 15.7484L18.5 18L17.2637 20.2516C16.2812 22.041 15.1123 23.7029 13.78 25.205L12.257 26.9221V29.9118C12.257 33.2742 9.73473 36 6.62341 36H0.5V34.4118H6.62341C8.92308 34.4118 10.7873 32.397 10.7873 29.9118V26.2838L12.7191 24.1059C13.9738 22.6914 15.0745 21.1262 15.9998 19.4411L16.7911 18L15.9998 16.5589C15.0745 14.8738 13.9738 13.3086 12.7191 11.8941L10.7873 9.7162V6.08823C10.7873 3.60295 8.92308 1.58824 6.62341 1.58824H0.5V0H6.62341Z" fill="url(#paint0_linear_35766_12742)"/>
<path d="M6.65977 2.98491C8.23008 2.98491 9.50307 4.29593 9.50307 5.91316V10.6418L10.4277 11.6105C11.9498 13.205 13.373 15.0188 14.438 16.9673L15.0129 18.019L14.438 19.0707C13.373 21.0192 11.9497 22.795 10.4277 24.3895L9.50307 25.3582V30.2143C9.50307 31.8315 8.23008 33.1425 6.65977 33.1425H0.500191V32.2703H6.65977C7.76233 32.2703 8.65613 31.3498 8.65613 30.2143V25.0013L9.82375 23.778C11.2934 22.2384 12.6716 20.5243 13.7 18.6429L14.041 18.019L13.7 17.3952C12.6716 15.5137 11.2934 13.7616 9.82375 12.222L8.65613 10.9988V5.91316C8.65613 4.77766 7.76233 3.85715 6.65977 3.85715H0.500191V2.98491H6.65977Z" fill="url(#paint1_linear_35766_12742)"/>
<defs>
<linearGradient id="paint0_linear_35766_12742" x1="6.86552" y1="2.9344e-08" x2="6.86552" y2="21.1765" gradientUnits="userSpaceOnUse">
<stop stop-color="#F5DCAE"/>
<stop offset="1" stop-color="#DFA952"/>
</linearGradient>
<linearGradient id="paint1_linear_35766_12742" x1="6.86552" y1="2.9344e-08" x2="6.86552" y2="21.1765" gradientUnits="userSpaceOnUse">
<stop stop-color="#F5DCAE"/>
<stop offset="1" stop-color="#DFA952"/>
</linearGradient>
</defs>
</svg>
