<svg width="18" height="36" viewBox="0 0 18 36" fill="none" xmlns="http://www.w3.org/2000/svg">
<path d="M12.3766 0C9.26527 0 6.74305 2.7258 6.74305 6.08824V9.07792L5.21999 10.795C3.88768 12.2971 2.71884 13.959 1.73632 15.7484L0.5 18L1.73632 20.2516C2.71884 22.041 3.88768 23.7029 5.21999 25.205L6.74305 26.9221V29.9118C6.74305 33.2742 9.26527 36 12.3766 36H18.5V34.4118H12.3766C10.0769 34.4118 8.21267 32.397 8.21267 29.9118V26.2838L6.28091 24.1059C5.02621 22.6914 3.92546 21.1262 3.00017 19.4411L2.20889 18L3.00017 16.5589C3.92546 14.8738 5.02621 13.3086 6.28091 11.8941L8.21267 9.7162V6.08824C8.21267 3.60295 10.0769 1.58824 12.3766 1.58824H18.5V0H12.3766Z" fill="url(#paint0_linear_35766_12743)"/>
<path d="M12.3402 2.98491C10.7699 2.98491 9.49693 4.29593 9.49693 5.91316V10.6418L8.57228 11.6105C7.05025 13.205 5.62697 15.0188 4.56196 16.9673L3.98711 18.019L4.56196 19.0707C5.62697 21.0192 7.05025 22.795 8.57229 24.3895L9.49693 25.3582V30.2143C9.49693 31.8315 10.7699 33.1425 12.3402 33.1425H18.4998V32.2703H12.3402C11.2377 32.2703 10.3439 31.3498 10.3439 30.2143V25.0013L9.17625 23.778C7.70657 22.2384 6.32838 20.5243 5.3 18.6429L4.95902 18.019L5.3 17.3952C6.32838 15.5137 7.70657 13.7616 9.17625 12.222L10.3439 10.9988V5.91316C10.3439 4.77766 11.2377 3.85715 12.3402 3.85715H18.4998V2.98491H12.3402Z" fill="url(#paint1_linear_35766_12743)"/>
<defs>
<linearGradient id="paint0_linear_35766_12743" x1="12.1471" y1="32.0625" x2="10.7822" y2="0.952034" gradientUnits="userSpaceOnUse">
<stop stop-color="#F3D7A3"/>
<stop offset="1" stop-color="#DFA952"/>
</linearGradient>
<linearGradient id="paint1_linear_35766_12743" x1="12.1471" y1="32.0625" x2="10.7822" y2="0.952034" gradientUnits="userSpaceOnUse">
<stop stop-color="#F3D7A3"/>
<stop offset="1" stop-color="#DFA952"/>
</linearGradient>
</defs>
</svg>
