<svg width="108" height="36" viewBox="0 0 108 36" fill="none" xmlns="http://www.w3.org/2000/svg">
<path d="M90.0002 26.9517C90.0002 29.1875 88.1876 31.0001 85.9518 31.0001H22.0163C19.7982 31.0001 18.0002 29.2022 18.0002 26.9845V8.87159C18.0002 6.73336 19.7335 5.00012 21.8717 5.00012H86.1288C88.267 5.00012 90.0002 6.73336 90.0002 8.8711V26.9517Z" fill="#EBAB1F"/>
<path d="M43.453 15.1196V21.7269L42.2738 21.9917V15.3843L43.453 15.1196ZM46.5748 15.9717C45.8472 16.135 45.4005 16.9543 45.4005 16.9543V16.3385L44.2561 16.588V20.5301C44.3959 20.4766 44.5474 20.4458 44.7057 20.4458C44.9607 20.4458 45.1975 20.5222 45.3956 20.6527V18.7282C45.4044 17.8064 45.6687 17.2681 46.2208 17.144C46.7057 17.0352 46.8876 17.3965 46.8798 17.9545V20.9645L48.003 20.711L48.0109 17.7103C48.0207 16.2409 47.4279 15.78 46.5748 15.9717ZM48.2752 15.6854L48.9189 15.5407V14.616L50.0574 14.3625V15.2853L50.8679 15.1029L50.8566 16.1021L50.0452 16.2845L50.0393 18.7866C50.0447 19.092 50.0981 19.2813 50.4409 19.2043C50.5747 19.1744 50.6816 19.1406 50.8037 19.094L50.8066 20.0324C50.5222 20.1673 50.3506 20.2217 50.1168 20.2742C49.4656 20.4247 48.9037 20.0011 48.9037 19.1357L48.9077 16.54L48.2634 16.6846L48.2752 15.6854ZM52.2398 17.5775C52.2403 17.6829 52.2373 17.7692 52.2545 17.8707C52.3398 18.3776 52.5889 18.7714 53.1013 18.6566C53.572 18.5512 53.7284 18.2384 53.8186 17.8932L55.0115 17.6255C54.887 18.3899 54.4736 19.3534 53.1714 19.6451C52.0035 19.9069 51.2974 19.2327 51.1037 18.0805C50.8914 16.8175 51.2204 14.9357 52.9512 14.5474C54.2285 14.261 54.8262 15.0166 54.9904 15.9938C55.0556 16.3811 55.0517 16.6689 55.0291 16.9513L52.2398 17.5775ZM53.897 16.3355C53.9 16.2487 53.8877 16.1752 53.8784 16.1198C53.8088 15.705 53.5803 15.3829 53.0763 15.4961C52.5551 15.6128 52.2981 16.0531 52.2506 16.7047L53.897 16.3355ZM57.8464 14.8832C57.0536 15.071 56.6712 15.6236 56.6668 16.7072L56.6565 18.7665L55.519 19.0219V14.058L56.6168 13.8119C56.631 13.9335 56.657 14.3012 56.655 14.7043C56.8398 14.0688 57.0933 13.7423 57.846 13.5736V14.8832H57.8464ZM61.8871 17.5559L61.8807 17.5574L60.7388 17.8153C60.6603 17.6726 60.5814 17.4461 60.5471 17.2867C60.3853 17.6294 60.1636 18.0241 59.3605 18.2046C58.5074 18.3963 58.0225 17.8153 57.9166 17.2544C57.666 15.931 58.6157 15.2882 59.5875 15.0406C59.9371 14.9514 60.2313 14.8989 60.5632 14.8151L60.5466 14.5175C60.5392 14.1551 60.4554 13.7138 59.8449 13.8511C59.3012 13.9732 59.2728 14.3174 59.2242 14.568L58.0617 14.8288C58.0764 14.0301 58.425 13.2593 59.7714 12.9568C60.8251 12.72 61.7012 13.0328 61.6934 14.3282V16.6827C61.6934 16.6827 61.7213 17.0798 61.7665 17.271C61.812 17.4652 61.8871 17.5559 61.8871 17.5559ZM60.5456 15.6197C60.2612 15.6834 60.0219 15.7565 59.8018 15.8349C59.1869 16.0879 58.9795 16.3743 59.056 16.7783C59.108 17.0538 59.3071 17.2298 59.6753 17.147C60.4613 16.9705 60.5299 16.2267 60.5431 15.6971L60.5456 15.6197ZM65.9904 14.9877C65.9267 15.9408 65.482 16.817 64.2023 17.1043C63.1065 17.3505 62.3955 16.7724 62.1798 15.6324C61.9189 14.2537 62.3131 12.3733 63.9189 12.013C65.3241 11.6972 65.8821 12.7126 65.9385 13.3324L64.8343 13.5805C64.7563 13.2147 64.5764 12.8622 64.066 12.9769C63.2629 13.1573 63.1957 14.5523 63.3398 15.3152C63.4649 15.9771 63.7635 16.2164 64.1729 16.1247C64.5494 16.0404 64.7652 15.7521 64.852 15.2441L65.9904 14.9877ZM47.3102 23.4258L45.7001 22.33C45.7001 22.33 45.6996 24.9012 45.6996 25.0193C45.6996 25.1017 45.6324 25.1689 45.5505 25.1689C45.4682 25.1689 45.402 25.1017 45.402 25.0193C45.402 24.9904 45.3985 22.079 45.3985 21.7235C45.3985 21.3425 45.0892 21.0322 44.7082 21.0322C44.3257 21.0322 44.0168 21.3425 44.0168 21.7235L44.0178 27.4655C44.0178 28.4961 44.8567 29.3365 45.8879 29.3365H46.0114C47.0283 29.3365 47.8447 28.5123 47.8447 27.4949C47.8447 27.4949 47.8457 24.4952 47.8457 24.4648C47.8457 24.0662 47.6255 23.6676 47.3102 23.4258ZM42.6381 22.5698C42.3532 22.6384 42.1772 22.9248 42.2459 23.2096C42.3145 23.4945 42.6008 23.6705 42.8857 23.6019L43.6903 23.4087V22.3168L42.6381 22.5698ZM42.6381 23.9765C42.3532 24.0451 42.1772 24.3314 42.2459 24.6163C42.3145 24.9012 42.6008 25.0772 42.8857 25.0086L43.6903 24.8154V23.7235L42.6381 23.9765ZM42.2459 26.0235C42.314 26.3084 42.6008 26.4844 42.8857 26.4157L43.6903 26.2226V25.1306L42.6381 25.3832C42.3532 25.4518 42.1777 25.7386 42.2459 26.0235Z" fill="black"/>
</svg>
