<svg viewBox="0 0 24 24" xmlns="http://www.w3.org/2000/svg"><path d="M21.565 4.273h-1.601c.211-.335.35-.71.39-1.108.127-1.27-.54-2.41-1.678-2.914a2.808 2.808 0 0 0-3.066.494L13.588 2.58a2.145 2.145 0 0 0-3.178.003L8.385.744A2.81 2.81 0 0 0 5.319.251C4.182.756 3.514 1.895 3.64 3.166c.04.397.18.773.39 1.107H2.436C1.642 4.273 1 4.917 1 5.711v2.156c0 .396.321.718.717.718h20.566A.718.718 0 0 0 23 7.867V5.71c0-.794-.642-1.438-1.435-1.438Zm-11.717-.24v.24H6.473a1.418 1.418 0 0 1-1.37-1.762 1.41 1.41 0 0 1 .774-.936 1.379 1.379 0 0 1 1.545.235l2.426 2.203v.02Zm9.083-1.059c-.054.747-.727 1.3-1.475 1.3h-3.304v-.265l2.388-2.17c.368-.333.882-.489 1.358-.347.682.204 1.082.785 1.033 1.482ZM2.435 10.023v10.54c0 .794.642 1.437 1.435 1.437h6.695V10.023h-8.13Zm11 0V22h6.695c.793 0 1.435-.643 1.435-1.437v-10.54h-8.13Z"/></svg>