<svg viewBox="0 0 24 24" xmlns="http://www.w3.org/2000/svg"><path d="M7.425 2 6.383 6.803H0c.013-.085.029-.17.048-.253l2.869-3.458A3.01 3.01 0 0 1 5.234 2h2.19Zm1.987 0h5.415l1.043 4.803h-7.5L9.412 2ZM8.39 8.579l3.525 13.416c.137.008.274.007.41-.004L15.85 8.579H8.39Zm15.586 0c-.006.09-.017.18-.031.269l-9.443 12.848a3.002 3.002 0 0 1-.356.145L17.631 8.58h6.345Zm-.026-1.776.05-.108-2.99-3.603A3.01 3.01 0 0 0 18.695 2h-2.092l1.041 4.803h6.307ZM0 8.579h6.42l3.492 13.286a3.011 3.011 0 0 1-.475-.188L.038 8.887A3.118 3.118 0 0 1 0 8.58Z"/></svg>