<svg width="24" height="24" viewBox="0 0 24 24" fill="none" xmlns="http://www.w3.org/2000/svg">
<path fill-rule="evenodd" clip-rule="evenodd" d="M20.2159 5.81712C20.6163 5.41745 21.1525 5.18255 21.7183 5.15899C22.0145 5.14934 22.3096 5.19927 22.586 5.30579C22.8625 5.41231 23.1147 5.57326 23.3276 5.77905C23.5404 5.98484 23.7097 6.23127 23.8252 6.50368C23.9407 6.7761 24.0002 7.06892 24 7.36474C24.0016 7.82714 23.8592 8.27859 23.5924 8.65659C23.4065 8.91986 23.1668 9.13842 22.8909 9.29892C22.6737 9.42523 22.5109 9.64259 22.5109 9.89382V12.3715C22.5109 13.0257 21.9762 13.556 21.3165 13.556H19.1163C18.7891 13.556 18.5238 13.8213 18.5238 14.1485V22.0818C18.5238 22.5905 18.3213 23.0784 17.961 23.4381C17.6006 23.7978 17.1119 23.9998 16.6023 23.9998H4.12868C3.87546 24.0031 3.62414 23.9557 3.38956 23.8604C3.15497 23.7652 2.94186 23.624 2.76279 23.4452C2.58372 23.2665 2.4423 23.0538 2.34688 22.8196C2.25146 22.5854 2.20396 22.3346 2.20719 22.0818V1.91804C2.20719 1.40935 2.40963 0.921485 2.76998 0.561782C3.13033 0.202079 3.61907 0 4.12868 0H16.6023C17.1119 0 17.6006 0.202079 17.961 0.561782C18.3213 0.921485 18.5238 1.40935 18.5238 1.91804V11.2277C18.5238 11.555 18.7891 11.8203 19.1163 11.8203H20.4772C20.8045 11.8203 21.0698 11.555 21.0698 11.2277V9.89553C21.0698 9.64347 20.906 9.42553 20.6874 9.29991C20.4024 9.13604 20.1551 8.91108 19.9645 8.63931C19.693 8.25208 19.5503 7.78942 19.5566 7.31679C19.5802 6.75206 19.8155 6.21679 20.2159 5.81712ZM9.29268 11.3753C8.96543 11.3753 8.70015 11.6406 8.70015 11.9679V14.7243C8.70015 15.0515 8.96543 15.3168 9.29268 15.3168H11.158C11.4852 15.3168 11.7505 15.0515 11.7505 14.7243V11.9679C11.7505 11.6406 11.4852 11.3753 11.158 11.3753H9.29268ZM4.72912 11.3753C4.40187 11.3753 4.13659 11.6406 4.13659 11.9679V14.7243C4.13659 15.0515 4.40187 15.3168 4.72912 15.3168H6.59443C6.92168 15.3168 7.18696 15.0515 7.18696 14.7243V11.9679C7.18696 11.6406 6.92168 11.3753 6.59443 11.3753H4.72912ZM15.7215 9.15049C16.0488 9.15049 16.314 8.88521 16.314 8.55796V2.89825C16.314 2.571 16.0488 2.30571 15.7215 2.30571H4.98542C4.65818 2.30571 4.39289 2.571 4.39289 2.89825V8.55796C4.39289 8.88521 4.65818 9.15049 4.98542 9.15049H15.7215ZM15.7216 15.3168C16.0488 15.3168 16.3141 15.0515 16.3141 14.7243V11.9679C16.3141 11.6406 16.0488 11.3753 15.7216 11.3753H13.8562C13.529 11.3753 13.2637 11.6406 13.2637 11.9679V14.7243C13.2637 15.0515 13.529 15.3168 13.8562 15.3168H15.7216ZM4.72915 18.3556C4.45301 18.3556 4.22915 18.5795 4.22915 18.8556C4.22915 19.1318 4.45301 19.3556 4.72915 19.3556H15.8141C16.0902 19.3556 16.3141 19.1318 16.3141 18.8556C16.3141 18.5795 16.0902 18.3556 15.8141 18.3556H4.72915Z" fill="black"/>
</svg>
