<svg width="24" height="24" viewBox="0 0 24 24" fill="none" xmlns="http://www.w3.org/2000/svg">
<path d="M17.5128 0H6.48722C4.80351 0 3.5 1.44928 3.5 3.18841V20.8116C3.5 22.5507 4.85783 24 6.48722 24H17.5128C19.1422 24 20.5 22.5507 20.5 20.8116V3.18841C20.5 1.44928 19.1422 0 17.5128 0ZM6.32428 5.21739C5.83546 5.10145 5.50958 4.69565 5.50958 4.17391C5.50958 3.07246 6.75879 2.14493 7.13898 1.91304C7.19329 1.85507 7.30192 1.85507 7.35623 1.91304C7.73642 2.14493 8.98562 3.07246 8.98562 4.17391C8.98562 4.69565 8.65974 5.10145 8.22524 5.21739C7.84505 5.27536 7.51917 5.15942 7.30192 4.86957C7.03035 5.15942 6.70447 5.27536 6.32428 5.21739ZM12.2444 16.2899C12.0815 16.4058 11.8642 16.4058 11.7556 16.2899C10.778 15.6522 7.51917 13.2174 7.51917 10.3768C7.51917 9.04348 8.33387 7.94203 9.52875 7.65217C10.5064 7.47826 11.4297 7.88406 11.9728 8.57971C12.516 7.82609 13.4393 7.42029 14.4712 7.65217C15.6661 7.88406 16.5351 9.04348 16.4808 10.3768C16.4265 13.2174 13.1677 15.6522 12.2444 16.2899ZM16.8067 22.087C16.7524 22.1449 16.6438 22.1449 16.5895 22.087C16.2093 21.8551 14.9601 20.9275 14.9601 19.8261C14.9601 19.3043 15.2859 18.8986 15.7204 18.7826C16.1006 18.7246 16.4265 18.8406 16.6438 19.1304C16.861 18.8406 17.2412 18.6667 17.6214 18.7826C18.1102 18.8986 18.3818 19.3043 18.3818 19.8261C18.4361 20.9275 17.1869 21.8551 16.8067 22.087Z" fill="black"/>
</svg>
