<svg width="24" height="24" viewBox="0 0 24 24" fill="none" xmlns="http://www.w3.org/2000/svg">
<g clip-path="url(#clip0_2125_118907)">
<path d="M0.61785 7.66713C0.0582348 9.53487 1.8152 10.6872 1.8152 10.6872C4.04925 12.1524 6.62489 12.1396 9.18111 11.9538L9.19656 12.0492C6.86851 12.8012 4.32332 13.6521 2.90971 15.8045C2.47279 16.4696 2.17312 17.313 2.31832 18.1158C2.45072 18.848 2.94105 19.5069 3.60438 19.8436C4.26771 20.1808 5.08904 20.1883 5.7581 19.863L5.74663 19.9209C5.74663 19.9209 5.5136 21.8407 7.35751 22.4753C9.20097 23.11 10.4239 21.4015 10.4239 21.4015C11.6601 19.6737 12.4417 17.5593 12.673 15.477C13.7556 18.1661 14.3187 18.6145 13.8509 23.4655C13.7993 23.7034 13.9507 23.9386 14.189 23.9903C14.2203 23.9973 14.2521 24 14.283 24C14.486 24 14.6692 23.8592 14.7142 23.6522C15.3064 18.7884 14.6069 17.8311 13.4758 15.0789C14.6241 16.8425 16.077 18.4044 18.0829 19.273C18.0829 19.273 20.0111 20.108 21.2645 18.6145C22.5179 17.121 21.3298 15.5953 21.3298 15.5953L21.2901 15.5516C22.0311 15.4854 22.7315 15.056 23.1265 14.4258C23.5215 13.7951 23.6027 12.9782 23.3392 12.2822C23.0501 11.5191 22.359 10.9507 21.6418 10.6056C19.3217 9.48853 16.7019 10.0698 14.3187 10.6236L14.283 10.5341C16.57 9.37687 18.7846 8.06169 19.9449 5.65552C19.9449 5.65552 20.8576 3.76306 19.4162 2.45008C17.9748 1.13711 16.4018 2.26252 16.4018 2.26252L16.3568 2.30047C16.3206 1.55726 15.9203 0.840528 15.3064 0.419934C14.6925 -0.000660534 13.8791 -0.114525 13.1734 0.120266C12.3993 0.378007 11.8035 1.04531 11.4293 1.74792C10.2191 4.0208 10.6936 6.66221 11.1504 9.06573L11.1111 9.08162C10.265 6.78578 9.31175 4.27722 7.10374 2.95233C6.42143 2.54277 5.56656 2.27752 4.77039 2.45494C4.04395 2.61691 3.40578 3.13372 3.09596 3.80984C2.78614 4.48641 2.81218 5.3073 3.16392 5.96269L3.10567 5.95342C3.10523 5.9543 1.17747 5.79939 0.61785 7.66713Z" fill="black"/>
</g>
<defs>
<clipPath id="clip0_2125_118907">
<rect width="24" height="24" fill="white"/>
</clipPath>
</defs>
</svg>
