<svg viewBox="0 0 24 24" xmlns="http://www.w3.org/2000/svg"><path d="M16.286 21c.514 0 .857-.327.857-.818 0-.491-.343-.818-.857-.818H7.714c-.514 0-.857.327-.857.818 0 .49.343.818.857.818h8.572ZM10.029 9.382l1.542-1.064V7.091l-1.457-.982c-.685.327-1.285.736-1.714 1.31l.514 1.636 1.115.327Zm1.028 2.863-.686.9.515 1.637c.343.082.685.163 1.114.163.429 0 .771-.081 1.114-.163l.515-1.637-.686-.9h-1.886Zm4.029-3.272.514-1.637a4.38 4.38 0 0 0-1.8-1.227l-1.371.982v1.145L13.97 9.3l1.115-.327Zm-5.315 1.063L8.657 9.71l-1.457.982c.086.736.343 1.39.686 2.045h1.8l.685-.9-.6-1.8Zm4.458 0-.6 1.8.685.9h1.8c.343-.572.6-1.309.686-2.045l-1.457-.982-1.114.327Z"/><path d="M23.143 3H.857C.343 3 0 3.327 0 3.818V16.91c0 .491.343.818.857.818h22.286c.514 0 .857-.327.857-.818V3.82c0-.492-.343-.819-.857-.819ZM12 15.682c-3.086 0-5.571-2.373-5.571-5.318 0-2.946 2.485-5.319 5.571-5.319s5.571 2.373 5.571 5.319c0 2.945-2.485 5.318-5.571 5.318Z"/></svg>